<svg xmlns="http://www.w3.org/2000/svg" width="13.2" height="21.238" viewBox="0 0 13.2 21.238">
  <g id="noun_order_1319386" transform="translate(-35.972 -25.787)">
    <g id="Group_20258" data-name="Group 20258" transform="translate(36.072 25.907)">
      <g id="Group_20257" data-name="Group 20257">
        <path id="Path_25577" data-name="Path 25577" d="M49.072,40.586v1.758a.586.586,0,0,1-.157.371l-4.238,4.129a.227.227,0,0,1-.313,0l-4.238-4.129a.6.6,0,0,1-.157-.371V40.586c0-.124.072-.148.161-.061l3.432,3.344c.09.087.161.06.161-.06V36.138a.219.219,0,0,1,.222-.217H45.1a.223.223,0,0,1,.222.217v7.671c0,.12.072.146.161.06l3.432-3.344C49,40.437,49.072,40.465,49.072,40.586Zm-13-8.358V30.47a.586.586,0,0,1,.157-.371l4.238-4.129a.227.227,0,0,1,.313,0L45.019,30.1a.6.6,0,0,1,.157.371v1.758c0,.124-.072.148-.161.061l-3.432-3.344c-.09-.087-.161-.06-.161.06v7.671a.219.219,0,0,1-.222.217h-1.15a.223.223,0,0,1-.222-.217V29c0-.12-.072-.146-.161-.06l-3.432,3.344C36.144,32.376,36.072,32.348,36.072,32.228Z" transform="translate(-36.072 -25.907)" fill="#5f6368" stroke="#5f6368" stroke-width="0.2"/>
      </g>
    </g>
  </g>
</svg>
