<svg xmlns="http://www.w3.org/2000/svg" xmlns:xlink="http://www.w3.org/1999/xlink" width="172.123" height="22.209" viewBox="0 0 172.123 22.209">
  <defs>
    <clipPath id="clip-path">
      <path id="Path_25633" data-name="Path 25633" d="M13.9,24.844A1.549,1.549,0,0,1,15.444,23.3h29.85a1.549,1.549,0,0,1,1.544,1.544v17.5a1.549,1.549,0,0,1-1.544,1.544H15.444A1.549,1.549,0,0,1,13.9,42.342v-17.5Z" transform="translate(-13.9 -23.3)"/>
    </clipPath>
    <clipPath id="clip-path-2">
      <path id="Path_25634" data-name="Path 25634" d="M66.084,68H64.437c-.154,0-.283,0-.36.077-.1.051-.129.154-.129.283a.279.279,0,0,0,.206.283,1.3,1.3,0,0,0,.335.051h.489A1.531,1.531,0,0,1,66.007,69a.355.355,0,0,1,.077.1V68Zm0,2.5a1.392,1.392,0,0,1-1.235.489H63.1v-.823h1.75a.466.466,0,0,0,.36-.1.343.343,0,0,0,.1-.257.393.393,0,0,0-.1-.257.5.5,0,0,0-.309-.077c-.849-.026-1.9.026-1.9-1.184a1.139,1.139,0,0,1,1.287-1.132h1.8V66.4H64.412a1.917,1.917,0,0,0-1.132.309V66.4h-2.47a1.791,1.791,0,0,0-1.081.309V66.4H55.3v.309a2.34,2.34,0,0,0-1.209-.309H51.159v.309a2.178,2.178,0,0,0-1.287-.309H46.63l-.746.849-.695-.8H40.3v5.275h4.786l.772-.823.721.823h2.959V70.492h.283a3.126,3.126,0,0,0,1.261-.18v1.415h2.445V70.363h.129c.154,0,.154,0,.154.154v1.209H61.2a2.256,2.256,0,0,0,1.235-.335v.335h2.342A3.648,3.648,0,0,0,66.11,71.5v-1Zm-3.628-1.518a1.033,1.033,0,0,1,.283.8c0,.823-.515,1.184-1.415,1.184H59.548v-.8H61.3a.466.466,0,0,0,.36-.1.343.343,0,0,0,.1-.257.393.393,0,0,0-.1-.257.531.531,0,0,0-.335-.077c-.849-.026-1.9.026-1.9-1.184a1.125,1.125,0,0,1,1.287-1.132h1.8v.8H60.861c-.18,0-.283,0-.36.077-.1.051-.129.154-.129.283a.279.279,0,0,0,.206.283,1.341,1.341,0,0,0,.36.051h.489A1.613,1.613,0,0,1,62.456,68.973ZM54.3,68.742a.832.832,0,0,1-.437.077H52.755V67.97h1.107a.787.787,0,0,1,.437.077.326.326,0,0,1,.18.335A.346.346,0,0,1,54.3,68.742Zm.566.463a1.006,1.006,0,0,1,.437.309,1.074,1.074,0,0,1,.154.695v.746h-.9v-.463c0-.232.026-.566-.154-.746a.907.907,0,0,0-.669-.18h-.978v1.39h-.9V67.2h2.084a2.211,2.211,0,0,1,1.081.18.905.905,0,0,1,.463.849A1,1,0,0,1,54.865,69.2ZM56,67.2h3.011V68H56.9v.695h2.059v.772H56.9v.746h2.11v.8H56Zm-6.1,1.75H48.715V68H49.9c.335,0,.54.129.54.463C50.465,68.767,50.233,68.948,49.9,68.948Zm-2.084,1.7L46.424,69.1l1.39-1.493Zm-3.577-.463H42.024v-.746h1.981v-.772H42.024V67.97h2.264l.978,1.107Zm7.179-1.75c0,1.055-.772,1.261-1.57,1.261H48.715v1.261h-1.75l-1.107-1.261L44.7,70.955H41.123V67.2h3.628l1.107,1.235L47.016,67.2H49.9C50.619,67.2,51.417,67.4,51.417,68.433Z" transform="translate(-40.3 -66.4)"/>
    </clipPath>
    <clipPath id="clip-path-3">
      <path id="Path_25635" data-name="Path 25635" d="M18.308,44.182l-.618-1.518-.618,1.518Zm13.638-.592a.832.832,0,0,1-.437.077H30.4v-.849h1.107a.787.787,0,0,1,.437.077.326.326,0,0,1,.18.335A.384.384,0,0,1,31.946,43.59Zm7.849.592-.618-1.518-.618,1.518ZM25.179,45.829h-.926V42.87L22.94,45.829h-.8L20.83,42.87v2.959H19l-.36-.849H16.764l-.36.849h-.978l1.621-3.783h1.338l1.544,3.577V42.046H21.4l1.184,2.573,1.081-2.573h1.493v3.783Zm3.68,0H25.848V42.046h3.011v.8h-2.11v.669h2.059v.772H26.748v.746h2.11ZM33.13,43.05a1.059,1.059,0,0,1-.643,1,1.006,1.006,0,0,1,.437.309,1.074,1.074,0,0,1,.154.695V45.8h-.9v-.489c0-.232.026-.566-.154-.746-.129-.129-.335-.154-.669-.154h-.978v1.364h-.9V42.046H31.56a2.381,2.381,0,0,1,1.107.18A.865.865,0,0,1,33.13,43.05Zm.515,2.779h.926V42.046h-.926Zm11.631,0H43.989L42.265,43v2.831H40.412l-.36-.849H38.2l-.335.849H36.81a2.01,2.01,0,0,1-1.312-3.32,1.778,1.778,0,0,1,1.364-.437h.875v.8h-.849a.849.849,0,0,0-.695.232,1.236,1.236,0,0,0-.257.849,1.3,1.3,0,0,0,.257.9.82.82,0,0,0,.618.206h.412l1.287-2.985h1.364l1.518,3.577v-3.6h1.39l1.6,2.625V42.046H45.3v3.783ZM15.4,46.575h1.544l.36-.849h.772l.335.849h3.062v-.643l.283.643h1.57l.257-.643v.643h7.565v-1.39H31.3c.1,0,.129.026.129.18v1.209h3.911v-.335a2.893,2.893,0,0,0,1.441.335h1.647l.36-.849h.772l.335.849h3.165v-.8l.489.8H46.1V41.3H43.578v.618l-.36-.618H40.644v.618l-.335-.618H36.836a3.082,3.082,0,0,0-1.518.309V41.3H32.924v.309a1.492,1.492,0,0,0-1.029-.309H23.12l-.592,1.364L21.936,41.3H19.157v.618l-.309-.618H16.481L15.4,43.8Z" transform="translate(-15.4 -41.3)"/>
    </clipPath>
  </defs>
  <g id="Group_20814" data-name="Group 20814" transform="translate(-438 -224.522)">
    <g id="_294654_visa_icon" data-name="294654_visa_icon" transform="translate(412.991 42.658)">
      <g id="形状_1_3_" transform="translate(31.004 181.864)">
        <g id="形状_1" transform="translate(0 0)">
          <g id="Group_20555" data-name="Group 20555">
            <path id="Path_25630" data-name="Path 25630" d="M87.029,182.248,83.538,203.7h5.586l3.492-21.456Zm-8.191,0L73.513,197l-.63-3.178h0l-.139-.712a17.793,17.793,0,0,0-4.956-6.282,22.345,22.345,0,0,0-2.485-1.72l4.84,18.589h5.82l8.887-21.456Zm21.8,5.956c0-2.426,5.44-2.114,7.83-.8l.8-4.608a16.124,16.124,0,0,0-5.024-.936c-2.772,0-9.355,1.212-9.355,7.1,0,5.544,7.726,5.613,7.726,8.523s-6.929,2.39-9.216.554l-.831,4.817a15.646,15.646,0,0,0,6.306,1.212c3.811,0,9.563-1.974,9.563-7.345C108.433,191.149,100.638,190.63,100.638,188.2Zm22.793-5.956H118.94a2.567,2.567,0,0,0-2.579,1.6l-8.33,19.857h5.822l1.165-3.187h7.1l.655,3.187H127.9Zm-6.8,13.866,2.935-8.029,1.651,8.029Z" transform="translate(-65.303 -181.864)" fill="#005bac" fill-rule="evenodd"/>
          </g>
        </g>
      </g>
      <g id="形状_1_2_" transform="translate(25.009 182.332)">
        <g id="形状_1_1_" transform="translate(0 0)">
          <g id="Group_20556" data-name="Group 20556">
            <path id="Path_25631" data-name="Path 25631" d="M36.781,186.943a2.422,2.422,0,0,0-2.7-1.936H25.114l-.105.364a22.221,22.221,0,0,1,8.446,4.171A16.757,16.757,0,0,1,38.7,196.61Z" transform="translate(-25.009 -185.007)" fill="#f6ac1d" fill-rule="evenodd"/>
          </g>
        </g>
      </g>
    </g>
    <g id="g3115" transform="translate(456.974 186.847)">
      <g id="g3110" transform="translate(67.026 37.712)">
        <path id="path2997" d="M258.443,76.1a11.065,11.065,0,1,1-11.065-11.086A11.076,11.076,0,0,1,258.443,76.1Z" transform="translate(-222.661 -65.017)" fill="#f79f1a" fill-rule="evenodd"/>
        <path id="path2995" d="M258.443,76.1a11.065,11.065,0,1,1-11.065-11.086A11.076,11.076,0,0,1,258.443,76.1Z" transform="translate(-236.312 -65.017)" fill="#ea001b" fill-rule="evenodd"/>
        <path id="path2999" d="M286.64,74.93a11.1,11.1,0,0,0,0,17.455,11.1,11.1,0,0,0,0-17.455Z" transform="translate(-268.749 -72.571)" fill="#ff5f01" fill-rule="evenodd"/>
      </g>
      <g id="g3043" transform="translate(101.928 54.285)">
        <g id="text3045" transform="translate(0 0)">
          <path id="path3057" d="M1.722,7.05v-.4h-.1L1.5,6.926l-.119-.272h-.1v.4H1.35v-.3l.111.257h.076l.111-.258v.3Zm-.654,0V6.721H1.2V6.655H.863v.067H1V7.05Z" transform="translate(-0.863 -6.654)" fill="#f79f1a"/>
        </g>
      </g>
    </g>
    <g id="_1933704_american_express_amex_charge_credit_card_payment_icon" data-name="1933704_american express_amex_charge_credit card_payment_icon" transform="translate(563.285 201.259)">
      <g id="Group_20559" data-name="Group 20559" transform="translate(13.9 23.3)">
        <g id="Group_20558" data-name="Group 20558" transform="translate(0 0)">
          <g id="Group_20557" data-name="Group 20557" clip-path="url(#clip-path)">
            <path id="Path_25632" data-name="Path 25632" d="M13.9,24.844A1.549,1.549,0,0,1,15.444,23.3h29.85a1.549,1.549,0,0,1,1.544,1.544v17.5a1.549,1.549,0,0,1-1.544,1.544H15.444A1.549,1.549,0,0,1,13.9,42.342v-17.5Z" transform="translate(-13.9 -23.3)" fill="#246ea9"/>
          </g>
        </g>
      </g>
      <g id="Group_20561" data-name="Group 20561" transform="translate(20.693 34.391)">
        <g id="Group_20560" data-name="Group 20560" transform="translate(0)" clip-path="url(#clip-path-2)">
          <rect id="Rectangle_7952" data-name="Rectangle 7952" width="28.358" height="7.849" transform="translate(-1.287 -1.235)" fill="#fffffe"/>
        </g>
      </g>
      <g id="Group_20564" data-name="Group 20564" transform="translate(14.286 27.932)">
        <g id="Group_20563" data-name="Group 20563" transform="translate(0 0)">
          <g id="Group_20562" data-name="Group 20562" clip-path="url(#clip-path-3)">
            <rect id="Rectangle_7953" data-name="Rectangle 7953" width="33.247" height="7.849" transform="translate(-1.287 -1.287)" fill="#fffffe"/>
          </g>
        </g>
        <rect id="Rectangle_7954" data-name="Rectangle 7954" width="0.926" height="3.783" transform="translate(18.245 0.746)" fill="#246ea9"/>
      </g>
    </g>
  </g>
</svg>
