<svg xmlns="http://www.w3.org/2000/svg" width="19.305" height="18.233" viewBox="0 0 19.305 18.233">
  <g id="noun-briefcase-4454774" transform="translate(-102.568 -46.649)">
    <path id="Path_25678" data-name="Path 25678" d="M119.444,50.494h-2.706V48.716A1.821,1.821,0,0,0,114.92,46.9h-5.4a1.821,1.821,0,0,0-1.817,1.817v1.777H105a2.183,2.183,0,0,0-2.18,2.18v9.779a2.183,2.183,0,0,0,2.18,2.18h14.445a2.183,2.183,0,0,0,2.18-2.18V52.674a2.183,2.183,0,0,0-2.18-2.18Zm-10.907-1.777a1,1,0,0,1,1-1h5.385a1,1,0,0,1,1,1v1.777h-7.382Zm-.416,2.61h10.651l-.872,4.966a1.331,1.331,0,0,1-1.331,1.1H107.86a1.331,1.331,0,0,1-1.331-1.1l-.869-4.966Zm12.671,11.127a1.348,1.348,0,0,1-1.331,1.331H105a1.348,1.348,0,0,1-1.348-1.331V52.674a1.331,1.331,0,0,1,1.168-1.331l.905,5.089a2.163,2.163,0,0,0,2.137,1.791h8.72a2.164,2.164,0,0,0,2.137-1.791l.905-5.093a1.331,1.331,0,0,1,1.168,1.331Z" transform="translate(0)" fill="#5f6368" stroke="#5f6368" stroke-width="0.5"/>
  </g>
</svg>
