<svg xmlns="http://www.w3.org/2000/svg" width="19.447" height="19.447" viewBox="0 0 19.447 19.447">
  <g id="Icon_feather-copy" data-name="Icon feather-copy" transform="translate(0.75 0.75)">
    <path id="Path_19" data-name="Path 19" d="M15.295,13.5h8.076a1.8,1.8,0,0,1,1.795,1.795v8.076a1.8,1.8,0,0,1-1.795,1.795H15.295A1.8,1.8,0,0,1,13.5,23.371V15.295A1.8,1.8,0,0,1,15.295,13.5Z" transform="translate(-7.219 -7.219)" fill="none" stroke="#ed1f57" stroke-linecap="round" stroke-linejoin="round" stroke-width="1.5"/>
    <path id="Path_20" data-name="Path 20" d="M5.692,14.666h-.9A1.8,1.8,0,0,1,3,12.871V4.795A1.8,1.8,0,0,1,4.795,3h8.076a1.8,1.8,0,0,1,1.795,1.795v.9" transform="translate(-3 -3)" fill="none" stroke="#ed1f57" stroke-linecap="round" stroke-linejoin="round" stroke-width="1.5"/>
  </g>
</svg>
