<svg xmlns="http://www.w3.org/2000/svg" width="21.395" height="16.444" viewBox="0 0 21.395 16.444">
  <g id="noun-live-2115716" transform="translate(-152.102 -140.818)">
    <path id="Path_25679" data-name="Path 25679" d="M155.758,157.275a.55.55,0,0,0,.434-.2.657.657,0,0,0,0-.916,10.139,10.139,0,0,1,0-13.875.657.657,0,0,0,0-.916.578.578,0,0,0-.868,0,11.579,11.579,0,0,0,0,15.708.653.653,0,0,0,.434.2Z" transform="translate(0 -0.163)" fill="#5f6368" stroke="#5f6368" stroke-width="0.3"/>
    <path id="Path_25680" data-name="Path 25680" d="M471.515,141.208a.657.657,0,0,0,0,.916,10.138,10.138,0,0,1,0,13.875.632.632,0,1,0,.869.916,11.662,11.662,0,0,0,0-15.773.639.639,0,0,0-.869.066Z" transform="translate(-302.11 0)" fill="#5f6368" stroke="#5f6368" stroke-width="0.3"/>
    <path id="Path_25681" data-name="Path 25681" d="M225.411,190.371a.568.568,0,0,0-.868,0,7.87,7.87,0,0,0,0,10.486.569.569,0,0,0,.869,0,.688.688,0,0,0,0-.941,6.408,6.408,0,0,1,0-8.537.776.776,0,0,0,0-1.008Z" transform="translate(-66.552 -46.552)" fill="#5f6368" stroke="#5f6368" stroke-width="0.3"/>
    <path id="Path_25682" data-name="Path 25682" d="M422.222,190.371a.568.568,0,0,0-.868,0,.688.688,0,0,0,0,.941,6.414,6.414,0,0,1,0,8.541.688.688,0,0,0,0,.941.568.568,0,0,0,.869,0,7.789,7.789,0,0,0,0-10.424Z" transform="translate(-254.615 -46.552)" fill="#5f6368" stroke="#5f6368" stroke-width="0.3"/>
    <path id="Path_25683" data-name="Path 25683" d="M299.04,229.44a3.1,3.1,0,1,0-3.1,3.1A3.072,3.072,0,0,0,299.04,229.44Zm-4.963,0a1.861,1.861,0,1,1,1.861,1.861A1.828,1.828,0,0,1,294.077,229.44Z" transform="translate(-133.108 -80.378)" fill="#5f6368" stroke="#5f6368" stroke-width="0.3"/>
  </g>
</svg>
