<svg xmlns="http://www.w3.org/2000/svg" width="16.773" height="20.978" viewBox="0 0 16.773 20.978">
  <g id="Icon_ionic-ios-notifications" data-name="Icon ionic-ios-notifications" transform="translate(-6.761 -3.93)">
    <path id="Path_25596" data-name="Path 25596" d="M17.131,31.115a2.472,2.472,0,0,0,2.522-2.779H14.6A2.473,2.473,0,0,0,17.131,31.115Z" transform="translate(-1.994 -6.206)" fill="#5f6368"/>
    <path id="Path_25597" data-name="Path 25597" d="M23.321,19.466c-.807-1.064-2.4-1.688-2.4-6.454,0-4.892-2.16-6.858-4.174-7.33-.189-.047-.325-.11-.325-.309V5.22a1.279,1.279,0,1,0-2.559,0v.152c0,.194-.136.262-.325.309-2.019.477-4.174,2.438-4.174,7.33,0,4.766-1.589,5.385-2.4,6.454a1.041,1.041,0,0,0,.834,1.667H22.493A1.041,1.041,0,0,0,23.321,19.466Z" transform="translate(0 0)" fill="#5f6368"/>
  </g>
</svg>
