<svg xmlns="http://www.w3.org/2000/svg" width="16.3" height="16.3" viewBox="0 0 16.3 16.3">
  <g id="noun_Calendar_1611923" transform="translate(-15.85 -16.35)">
    <g id="Group_20248" data-name="Group 20248" transform="translate(16 16.5)">
      <path id="Path_25571" data-name="Path 25571" d="M30.3,17.977H28.364v-.985a.485.485,0,1,0-.97,0v.985H20.606v-.738a.485.485,0,1,0-.97,0v.738H17.7A1.7,1.7,0,0,0,16,19.7V30.777A1.7,1.7,0,0,0,17.7,32.5H30.3A1.7,1.7,0,0,0,32,30.777V19.7A1.7,1.7,0,0,0,30.3,17.977Zm.727,12.8a.71.71,0,0,1-.679.738H17.7a.708.708,0,0,1-.727-.689V23.638H31.03Zm0-11.077v2.954H16.97V19.7a.71.71,0,0,1,.679-.738h1.988v1.231a.485.485,0,1,0,.97,0V18.962h6.788v.985a.485.485,0,1,0,.97,0v-.985H30.3a.708.708,0,0,1,.727.689Z" transform="translate(-16 -16.5)" fill="#177082" stroke="#177082" stroke-width="0.3"/>
    </g>
  </g>
</svg>
