<svg xmlns="http://www.w3.org/2000/svg" width="18.75" height="15.717" viewBox="0 0 18.75 15.717">
  <g id="noun_Wallet_1842416" transform="translate(0.125 0.125)">
    <path id="Path_25578" data-name="Path 25578" d="M42.395,30.77H31.022a3.109,3.109,0,0,0-3.1,3.1V35.4H27.6a.6.6,0,0,0-.6.6v5a.6.6,0,0,0,.6.6h.3v1.524a3.109,3.109,0,0,0,3.121,3.1H42.395a3.109,3.109,0,0,0,3.1-3.1v-9.25a3.109,3.109,0,0,0-3.1-3.113ZM28.207,40.4v-3.8h3.877a1.9,1.9,0,0,1,0,3.792H28.207Zm16.087,2.731a1.9,1.9,0,0,1-1.9,1.9H31.022a1.9,1.9,0,0,1-1.9-1.9V41.608H32.1a3.1,3.1,0,0,0,0-6.205H29.123V33.875a1.9,1.9,0,0,1,1.9-1.9H42.395a1.9,1.9,0,0,1,1.9,1.9Z" transform="translate(-27 -30.77)" fill="#5f6368" stroke="#5f6368" stroke-width="0.25"/>
    <circle id="Ellipse_478" data-name="Ellipse 478" cx="1.058" cy="1.058" r="1.058" transform="translate(4.026 6.676)" fill="#5f6368" stroke="#5f6368" stroke-width="0.25"/>
  </g>
</svg>
