<svg xmlns="http://www.w3.org/2000/svg" width="19.769" height="19.769" viewBox="0 0 19.769 19.769">
  <path id="Icon_awesome-info-circle" data-name="Icon awesome-info-circle" d="M10.447.563a9.885,9.885,0,1,0,9.885,9.885A9.886,9.886,0,0,0,10.447.563Zm0,4.384A1.674,1.674,0,1,1,8.773,6.621,1.674,1.674,0,0,1,10.447,4.947ZM12.679,15.07a.478.478,0,0,1-.478.478H8.693a.478.478,0,0,1-.478-.478v-.957a.478.478,0,0,1,.478-.478h.478V11.085H8.693a.478.478,0,0,1-.478-.478V9.65a.478.478,0,0,1,.478-.478h2.551a.478.478,0,0,1,.478.478v3.986H12.2a.478.478,0,0,1,.478.478Z" transform="translate(-0.563 -0.563)" fill="#646464"/>
</svg>
