<svg xmlns="http://www.w3.org/2000/svg" width="17.927" height="17.944" viewBox="0 0 17.927 17.944">
  <g id="organization" transform="translate(-1 -0.987)">
    <path id="Path_25604" data-name="Path 25604" d="M17.3,14.181V10.775a.815.815,0,0,0-.815-.815h-5.7V7.4a3.259,3.259,0,1,0-1.63,0V9.961h-5.7a.815.815,0,0,0-.815.815v3.406a2.444,2.444,0,1,0,1.63,0V11.59H9.148v2.591a2.444,2.444,0,1,0,1.63,0V11.59h4.889v2.591a2.444,2.444,0,1,0,1.63,0ZM8.333,4.257a1.63,1.63,0,1,1,1.63,1.63A1.63,1.63,0,0,1,8.333,4.257ZM3.444,17.294a.815.815,0,1,1,.815-.815A.815.815,0,0,1,3.444,17.294Zm6.519,0a.815.815,0,1,1,.815-.815A.815.815,0,0,1,9.963,17.294Zm6.519,0a.815.815,0,1,1,.815-.815A.815.815,0,0,1,16.482,17.294Z" transform="translate(0 0)" fill="#5f6368"/>
  </g>
</svg>
