<svg xmlns="http://www.w3.org/2000/svg" width="22.862" height="15.857" viewBox="0 0 22.862 15.857">
  <g id="Group_20259" data-name="Group 20259" transform="translate(-2152.3 -5075.95)">
    <g id="noun_User_2103333" transform="translate(2152.5 5076.15)">
      <g id="Group_20256" data-name="Group 20256" transform="translate(0 0)">
        <g id="Group_20255" data-name="Group 20255" transform="translate(0 0)">
          <path id="Path_25575" data-name="Path 25575" d="M14.39,12.581A3.79,3.79,0,1,0,10.6,8.79,3.775,3.775,0,0,0,14.39,12.581Zm0-6.177A2.387,2.387,0,1,1,12,8.79,2.367,2.367,0,0,1,14.39,6.4Z" transform="translate(-6.951 -5)" fill="#5f6368" stroke="#5f6368" stroke-width="0.4"/>
          <path id="Path_25576" data-name="Path 25576" d="M13.927,17.4H10.951A6.077,6.077,0,0,0,5,23.577a.677.677,0,1,0,1.353,0,4.693,4.693,0,0,1,4.6-4.773h2.976a4.694,4.694,0,0,1,4.6,4.773.677.677,0,1,0,1.353,0A6.121,6.121,0,0,0,13.927,17.4Z" transform="translate(-5 -8.821)" fill="#5f6368" stroke="#5f6368" stroke-width="0.4"/>
        </g>
      </g>
    </g>
    <path id="Subtraction_1" data-name="Subtraction 1" d="M7.125,10.437a.44.44,0,0,1-.456-.474,3.169,3.169,0,0,0-3.1-3.223H1.555a3,3,0,0,0-.415.029,3.041,3.041,0,0,0-.517-.864,3.891,3.891,0,0,1,.933-.113h2.01A3.914,3.914,0,0,1,6.4,7.025,4.216,4.216,0,0,1,7.583,9.963.441.441,0,0,1,7.125,10.437ZM2.559,5.119A2.548,2.548,0,0,1,0,2.559,2.548,2.548,0,0,1,2.559,0,2.548,2.548,0,0,1,5.119,2.559,2.548,2.548,0,0,1,2.559,5.119Zm0-4.171A1.594,1.594,0,0,0,.948,2.559,1.594,1.594,0,0,0,2.559,4.171,1.594,1.594,0,0,0,4.171,2.559,1.594,1.594,0,0,0,2.559.948Z" transform="translate(2167.38 5081.17)" fill="#5f6368" stroke="#5f6368" stroke-width="0.4"/>
  </g>
</svg>
