<?xml version="1.0" encoding="utf-8"?>
<!-- Generator: Adobe Illustrator 24.3.0, SVG Export Plug-In . SVG Version: 6.00 Build 0)  -->
<svg version="1.1" id="Layer_1" xmlns="http://www.w3.org/2000/svg" xmlns:xlink="http://www.w3.org/1999/xlink" x="0px" y="0px"
	 viewBox="0 0 112 44" style="enable-background:new 0 0 112 44;" xml:space="preserve">
<style type="text/css">
	.st0{enable-background:new    ;}
	.st1{fill:#ED1F57;}
</style>
<g>
	<g class="st0">
		<path class="st1" d="M55.8,27.1h-2.3c-0.1-0.5-0.3-0.9-0.5-1.3c-0.2-0.4-0.5-0.7-0.9-1c-0.4-0.3-0.7-0.5-1.2-0.6
			C50.4,24.1,50,24,49.5,24c-0.9,0-1.7,0.2-2.4,0.7c-0.7,0.4-1.2,1.1-1.6,1.9c-0.4,0.9-0.6,1.9-0.6,3.1c0,1.2,0.2,2.3,0.6,3.1
			c0.4,0.9,0.9,1.5,1.6,1.9c0.7,0.4,1.5,0.7,2.3,0.7c0.5,0,0.9-0.1,1.4-0.2s0.8-0.3,1.2-0.6c0.4-0.3,0.7-0.6,0.9-1s0.4-0.8,0.5-1.3
			l2.3,0c-0.1,0.8-0.4,1.4-0.7,2.1s-0.8,1.2-1.4,1.6c-0.6,0.5-1.2,0.8-1.9,1.1c-0.7,0.2-1.5,0.4-2.3,0.4c-1.3,0-2.5-0.3-3.5-0.9
			s-1.8-1.5-2.4-2.7c-0.6-1.2-0.9-2.6-0.9-4.2c0-1.6,0.3-3,0.9-4.2s1.4-2.1,2.4-2.7c1-0.6,2.2-0.9,3.5-0.9c0.8,0,1.6,0.1,2.3,0.3
			s1.3,0.6,1.9,1c0.6,0.4,1,1,1.4,1.6C55.4,25.5,55.6,26.3,55.8,27.1z"/>
		<path class="st1" d="M63.2,37.6c-1.1,0-2-0.2-2.8-0.7s-1.4-1.2-1.9-2.1c-0.4-0.9-0.7-1.9-0.7-3.1c0-1.2,0.2-2.2,0.7-3.1
			c0.4-0.9,1.1-1.6,1.9-2.1s1.7-0.7,2.8-0.7s2,0.2,2.8,0.7c0.8,0.5,1.4,1.2,1.9,2.1c0.4,0.9,0.7,1.9,0.7,3.1c0,1.2-0.2,2.2-0.7,3.1
			c-0.4,0.9-1.1,1.6-1.9,2.1C65.2,37.4,64.2,37.6,63.2,37.6z M63.2,35.8c0.7,0,1.3-0.2,1.7-0.6s0.8-0.9,1-1.5c0.2-0.6,0.3-1.3,0.3-2
			c0-0.7-0.1-1.4-0.3-2c-0.2-0.6-0.6-1.1-1-1.5c-0.5-0.4-1-0.6-1.7-0.6c-0.7,0-1.3,0.2-1.7,0.6c-0.5,0.4-0.8,0.9-1,1.5
			c-0.2,0.6-0.3,1.3-0.3,2c0,0.7,0.1,1.4,0.3,2c0.2,0.6,0.6,1.1,1,1.5S62.5,35.8,63.2,35.8z"/>
		<path class="st1" d="M71,37.4V25.9h2.2v1.8h0.1c0.2-0.6,0.6-1.1,1.1-1.5s1.1-0.5,1.8-0.5c0.1,0,0.3,0,0.5,0s0.3,0,0.5,0V28
			c-0.1,0-0.2-0.1-0.5-0.1c-0.2,0-0.5,0-0.7,0c-0.5,0-1,0.1-1.4,0.3c-0.4,0.2-0.7,0.5-1,0.9s-0.4,0.8-0.4,1.3v7H71z"/>
		<path class="st1" d="M83.6,37.6c-1.1,0-2.1-0.2-2.9-0.7c-0.8-0.5-1.4-1.2-1.9-2.1c-0.4-0.9-0.7-1.9-0.7-3.1c0-1.2,0.2-2.2,0.7-3.1
			c0.4-0.9,1.1-1.6,1.8-2.1s1.7-0.8,2.8-0.8c0.6,0,1.3,0.1,1.9,0.3s1.2,0.5,1.6,1c0.5,0.5,0.9,1.1,1.1,1.8c0.3,0.7,0.4,1.6,0.4,2.7
			v0.8h-9.1v-1.7h6.9c0-0.6-0.1-1.1-0.4-1.6c-0.2-0.5-0.6-0.8-1-1.1c-0.4-0.3-0.9-0.4-1.5-0.4c-0.6,0-1.2,0.2-1.6,0.5
			s-0.8,0.7-1.1,1.2c-0.3,0.5-0.4,1-0.4,1.6v1.3c0,0.8,0.1,1.4,0.4,2s0.7,0.9,1.1,1.2c0.5,0.3,1.1,0.4,1.7,0.4
			c0.4,0,0.8-0.1,1.2-0.2c0.3-0.1,0.6-0.3,0.9-0.5c0.3-0.2,0.4-0.5,0.6-0.9l2.1,0.4c-0.2,0.6-0.5,1.2-0.9,1.6
			c-0.4,0.5-1,0.8-1.6,1.1C85.2,37.5,84.4,37.6,83.6,37.6z"/>
		<path class="st1" d="M96.4,25.9v1.8H90v-1.8H96.4z M91.7,37.4V24.6c0-0.7,0.2-1.3,0.5-1.8c0.3-0.5,0.7-0.8,1.2-1.1
			c0.5-0.2,1.1-0.4,1.7-0.4c0.4,0,0.8,0,1.1,0.1c0.3,0.1,0.6,0.1,0.7,0.2l-0.5,1.8c-0.1,0-0.2-0.1-0.4-0.1s-0.4-0.1-0.6-0.1
			c-0.5,0-0.9,0.1-1.2,0.4C94.1,24,94,24.4,94,24.9v12.5H91.7z"/>
		<path class="st1" d="M99.9,24.2c-0.4,0-0.7-0.1-1-0.4c-0.3-0.3-0.4-0.6-0.4-0.9c0-0.4,0.1-0.7,0.4-0.9c0.3-0.3,0.6-0.4,1-0.4
			s0.7,0.1,1,0.4c0.3,0.3,0.4,0.6,0.4,0.9c0,0.4-0.1,0.7-0.4,0.9C100.6,24,100.2,24.2,99.9,24.2z M98.7,37.4V25.9h2.2v11.5H98.7z"/>
		<path class="st1" d="M109.3,25.9v1.8H103v-1.8H109.3z M104.7,23.2h2.2V34c0,0.4,0.1,0.8,0.2,1c0.1,0.2,0.3,0.4,0.5,0.4
			s0.4,0.1,0.7,0.1c0.2,0,0.3,0,0.5,0c0.1,0,0.2,0,0.3-0.1l0.4,1.8c-0.1,0-0.3,0.1-0.6,0.2c-0.2,0.1-0.5,0.1-0.9,0.1
			c-0.6,0-1.1-0.1-1.6-0.3s-0.9-0.6-1.2-1c-0.3-0.5-0.5-1-0.5-1.7V23.2z"/>
	</g>
	
		<image style="overflow:visible;enable-background:new    ;" width="78" height="82" id="corefit-icon" xlink:href="E74001DD.png"  transform="matrix(0.4906 0 0 0.4906 1.5918 1.7802)">
	</image>
</g>
</svg>
