<svg xmlns="http://www.w3.org/2000/svg" width="125.315" height="34.555" viewBox="0 0 125.315 34.555">
  <g id="Group_14259" data-name="Group 14259" transform="translate(-61.298 -371.148)">
    <path id="Path_3172" data-name="Path 3172" d="M389.484,388.51a.7.7,0,0,0,.69.579.693.693,0,0,0,.123-.01.7.7,0,0,0-.246-1.383h0A.7.7,0,0,0,389.484,388.51Z" transform="translate(-312.834 -6.905)" fill="#ed1f57"/>
    <path id="Path_3173" data-name="Path 3173" d="M369.292,434.506a.7.7,0,1,0,.97.214A.7.7,0,0,0,369.292,434.506Z" transform="translate(-297.043 -42.877)" fill="#ed1f57"/>
    <path id="Path_3174" data-name="Path 3174" d="M364.891,411.827a.7.7,0,1,0,.837-.534A.7.7,0,0,0,364.891,411.827Z" transform="translate(-293.891 -25.073)" fill="#ed1f57"/>
    <path id="Path_3175" data-name="Path 3175" d="M370.8,400.443a.7.7,0,1,0,.174.978A.7.7,0,0,0,370.8,400.443Z" transform="translate(-297.601 -16.633)" fill="#ed1f57"/>
    <path id="Path_3176" data-name="Path 3176" d="M378.432,393.11a.7.7,0,1,0,.214-.97A.7.7,0,0,0,378.432,393.11Z" transform="translate(-304.246 -10.251)" fill="#ed1f57"/>
    <path id="Path_3177" data-name="Path 3177" d="M366.025,423.821a.7.7,0,1,0-.692.825.746.746,0,0,0,.123-.01A.7.7,0,0,0,366.025,423.821Z" transform="translate(-293.704 -34.287)" fill="#ed1f57"/>
    <path id="Path_3178" data-name="Path 3178" d="M402.827,388.776a.7.7,0,1,0-.685.55A.7.7,0,0,0,402.827,388.776Z" transform="translate(-322.049 -7.088)" fill="#ed1f57"/>
    <path id="Path_3179" data-name="Path 3179" d="M400.877,449.5a.7.7,0,1,0-.691-.58A.7.7,0,0,0,400.877,449.5Z" transform="translate(-321.076 -53.43)" fill="#ed1f57"/>
    <path id="Path_3180" data-name="Path 3180" d="M388.224,448.4a.7.7,0,1,0,.837-.533A.7.7,0,0,0,388.224,448.4Z" transform="translate(-311.86 -53.241)" fill="#ed1f57"/>
    <path id="Path_3181" data-name="Path 3181" d="M412.624,444.091a.7.7,0,1,0-.592,1.08.7.7,0,0,0,.592-1.08Z" transform="translate(-329.665 -50.093)" fill="#ed1f57"/>
    <path id="Path_3182" data-name="Path 3182" d="M420.266,436.761a.7.7,0,1,0-.173-.978A.7.7,0,0,0,420.266,436.761Z" transform="translate(-336.317 -43.715)" fill="#ed1f57"/>
    <path id="Path_3183" data-name="Path 3183" d="M421.984,401.688a.7.7,0,1,0-.213.97A.7.7,0,0,0,421.984,401.688Z" transform="translate(-336.874 -17.44)" fill="#ed1f57"/>
    <path id="Path_3184" data-name="Path 3184" d="M377.554,444.307a.7.7,0,1,0-.174-.978A.7.7,0,0,0,377.554,444.307Z" transform="translate(-303.424 -49.526)" fill="#ed1f57"/>
    <path id="Path_3185" data-name="Path 3185" d="M413.5,392.863a.7.7,0,1,0,.174.977A.7.7,0,0,0,413.5,392.863Z" transform="translate(-330.489 -10.796)" fill="#ed1f57"/>
    <path id="Path_3186" data-name="Path 3186" d="M358.214,417.572a.827.827,0,0,0,.81.842h.017a.827.827,0,1,0-.826-.842Z" transform="translate(-288.762 -29.297)" fill="#ed1f57"/>
    <path id="Path_3187" data-name="Path 3187" d="M369.423,392.826a.826.826,0,1,0,.018-1.168A.824.824,0,0,0,369.423,392.826Z" transform="translate(-297.214 -9.785)" fill="#ed1f57"/>
    <path id="Path_3188" data-name="Path 3188" d="M381.537,383.84a.826.826,0,0,0,.3,1.594.809.809,0,0,0,.3-.059.826.826,0,1,0-.609-1.536Z" transform="translate(-306.321 -3.899)" fill="#ed1f57"/>
    <path id="Path_3189" data-name="Path 3189" d="M380.423,452.052a.809.809,0,0,0,.328.069.827.827,0,1,0-.328-.069Z" transform="translate(-305.482 -55.254)" fill="#ed1f57"/>
    <path id="Path_3190" data-name="Path 3190" d="M408.673,452.531a.826.826,0,1,0-.3.058A.826.826,0,0,0,408.673,452.531Z" transform="translate(-326.75 -55.615)" fill="#ed1f57"/>
    <path id="Path_3191" data-name="Path 3191" d="M420.8,443.561a.826.826,0,1,0-.02,1.167A.825.825,0,0,0,420.8,443.561Z" transform="translate(-335.862 -49.741)" fill="#ed1f57"/>
    <path id="Path_3192" data-name="Path 3192" d="M421.63,392.479a.827.827,0,1,0-.019,1.168A.827.827,0,0,0,421.63,392.479Z" transform="translate(-336.505 -10.405)" fill="#ed1f57"/>
    <path id="Path_3193" data-name="Path 3193" d="M409.785,384.285a.826.826,0,1,0,.43,1.086A.825.825,0,0,0,409.785,384.285Z" transform="translate(-327.587 -4.235)" fill="#ed1f57"/>
    <path id="Path_3194" data-name="Path 3194" d="M395.677,382.915h.015a.818.818,0,1,0-.015,0Z" transform="translate(-316.987 -1.959)" fill="#ed1f57"/>
    <path id="Path_3195" data-name="Path 3195" d="M369.184,444.1a.826.826,0,1,0-.595-.252h0A.83.83,0,0,0,369.184,444.1Z" transform="translate(-296.573 -49.076)" fill="#ed1f57"/>
    <path id="Path_3196" data-name="Path 3196" d="M394.505,455.09h.011a.82.82,0,1,0-.011,0Z" transform="translate(-316.082 -57.541)" fill="#ed1f57"/>
    <path id="Path_3197" data-name="Path 3197" d="M361.67,404.583a.826.826,0,1,0-.429-1.087A.824.824,0,0,0,361.67,404.583Z" transform="translate(-291.04 -18.699)" fill="#ed1f57"/>
    <path id="Path_3198" data-name="Path 3198" d="M362.318,431.138a.826.826,0,1,0-.465,1.073A.826.826,0,0,0,362.318,431.138Z" transform="translate(-290.694 -39.966)" fill="#ed1f57"/>
    <path id="Path_3199" data-name="Path 3199" d="M385.622,460.177a.972.972,0,1,0-.749-1.153A.968.968,0,0,0,385.622,460.177Z" transform="translate(-309.275 -61.25)" fill="#ed1f57"/>
    <path id="Path_3200" data-name="Path 3200" d="M358.509,440.02a.972.972,0,1,0,1.344.285A.972.972,0,0,0,358.509,440.02Z" transform="translate(-288.648 -47.087)" fill="#ed1f57"/>
    <path id="Path_3201" data-name="Path 3201" d="M402.565,460.4a.971.971,0,1,0-.179.017A.972.972,0,0,0,402.565,460.4Z" transform="translate(-322.031 -61.421)" fill="#ed1f57"/>
    <path id="Path_3202" data-name="Path 3202" d="M352.145,408.693a.972.972,0,1,0,1.153-.749A.971.971,0,0,0,352.145,408.693Z" transform="translate(-284.071 -22.49)" fill="#ed1f57"/>
    <path id="Path_3203" data-name="Path 3203" d="M430.214,395.488a.971.971,0,1,0-.816-.441A.965.965,0,0,0,430.214,395.488Z" transform="translate(-343.459 -11.418)" fill="#ed1f57"/>
    <path id="Path_3204" data-name="Path 3204" d="M417.767,454.269a.972.972,0,1,0-.816-.442A.967.967,0,0,0,417.767,454.269Z" transform="translate(-333.874 -56.684)" fill="#ed1f57"/>
    <path id="Path_3205" data-name="Path 3205" d="M370.947,381.285a.972.972,0,0,0,.532,1.786.961.961,0,0,0,.529-.157.972.972,0,1,0-1.06-1.629Z" transform="translate(-298.227 -1.856)" fill="#ed1f57"/>
    <path id="Path_3206" data-name="Path 3206" d="M418.1,383.459a.972.972,0,1,0-.252-1.351A.968.968,0,0,0,418.1,383.459Z" transform="translate(-334.552 -2.285)" fill="#ed1f57"/>
    <path id="Path_3207" data-name="Path 3207" d="M360.417,394.212a.971.971,0,1,0-.8.423A.972.972,0,0,0,360.417,394.212Z" transform="translate(-289.093 -10.76)" fill="#ed1f57"/>
    <path id="Path_3208" data-name="Path 3208" d="M403.616,375.195a.972.972,0,1,0,.75,1.152A.971.971,0,0,0,403.616,375.195Z" transform="translate(-322.822 2.73)" fill="#ed1f57"/>
    <path id="Path_3209" data-name="Path 3209" d="M386.671,374.979a.973.973,0,0,0,.177,1.928.99.99,0,0,0,.18-.017.972.972,0,0,0-.358-1.911Z" transform="translate(-310.065 2.892)" fill="#ed1f57"/>
    <path id="Path_3210" data-name="Path 3210" d="M353.838,425.278a.972.972,0,1,0-.956,1.151,1.062,1.062,0,0,0,.179-.016A.974.974,0,0,0,353.838,425.278Z" transform="translate(-283.907 -35.244)" fill="#ed1f57"/>
    <path id="Path_3211" data-name="Path 3211" d="M370.046,453.5a.972.972,0,1,0-.25-1.351A.963.963,0,0,0,370.046,453.5Z" transform="translate(-297.549 -56.227)" fill="#ed1f57"/>
    <path id="Path_3212" data-name="Path 3212" d="M429.088,442.543a.97.97,0,0,0,1.351-.25.972.972,0,1,0-1.351.25Z" transform="translate(-343.016 -47.786)" fill="#ed1f57"/>
    <path id="Path_3213" data-name="Path 3213" d="M412.487,370.668a1.143,1.143,0,1,0,1.5-.607A1.143,1.143,0,0,0,412.487,370.668Z" transform="translate(-330.486 6.736)" fill="#ed1f57"/>
    <path id="Path_3214" data-name="Path 3214" d="M374.254,371.24a1.144,1.144,0,1,0,.631-1.488A1.145,1.145,0,0,0,374.254,371.24Z" transform="translate(-301.05 6.969)" fill="#ed1f57"/>
    <path id="Path_3215" data-name="Path 3215" d="M393.626,468.224h.01a1.14,1.14,0,1,0-.01,0Z" transform="translate(-315.158 -67.167)" fill="#ed1f57"/>
    <path id="Path_3216" data-name="Path 3216" d="M394.466,366.007a1.143,1.143,0,1,0-.017,2.286h.008a1.143,1.143,0,0,0,.008-2.286Z" transform="translate(-315.792 9.788)" fill="#ed1f57"/>
    <path id="Path_3217" data-name="Path 3217" d="M428.865,381.245a1.144,1.144,0,1,0,1.618.013A1.145,1.145,0,0,0,428.865,381.245Z" transform="translate(-342.907 -1.693)" fill="#ed1f57"/>
    <path id="Path_3218" data-name="Path 3218" d="M428.284,451.934a1.143,1.143,0,1,0,1.617.015A1.145,1.145,0,0,0,428.284,451.934Z" transform="translate(-342.459 -56.131)" fill="#ed1f57"/>
    <path id="Path_3219" data-name="Path 3219" d="M359.018,382.643a1.144,1.144,0,1,0-.816-.343A1.138,1.138,0,0,0,359.018,382.643Z" transform="translate(-288.5 -1.261)" fill="#ed1f57"/>
    <path id="Path_3220" data-name="Path 3220" d="M344.108,415.559a1.144,1.144,0,0,0-.017,2.288h.009a1.142,1.142,0,0,0,1.143-1.134h0A1.146,1.146,0,0,0,344.108,415.559Z" transform="translate(-277.012 -28.371)" fill="#ed1f57"/>
    <path id="Path_3221" data-name="Path 3221" d="M347.016,397.176a1.143,1.143,0,1,0,1.5-.607A1.144,1.144,0,0,0,347.016,397.176Z" transform="translate(-280.068 -13.677)" fill="#ed1f57"/>
    <path id="Path_3222" data-name="Path 3222" d="M347.325,434.787a1.143,1.143,0,0,0-.631,1.488h0a1.143,1.143,0,1,0,.63-1.488Z" transform="translate(-279.826 -43.114)" fill="#ed1f57"/>
    <path id="Path_3223" data-name="Path 3223" d="M359.239,452.966a1.144,1.144,0,1,0-.8.328A1.144,1.144,0,0,0,359.239,452.966Z" transform="translate(-288.053 -55.669)" fill="#ed1f57"/>
    <path id="Path_3224" data-name="Path 3224" d="M375.609,463.549a1.145,1.145,0,1,0-1.053.7A1.145,1.145,0,0,0,375.609,463.549Z" transform="translate(-300.466 -64.102)" fill="#ed1f57"/>
    <path id="Path_3225" data-name="Path 3225" d="M413.841,463a1.144,1.144,0,1,0-.631,1.489A1.143,1.143,0,0,0,413.841,463Z" transform="translate(-329.902 -64.352)" fill="#ed1f57"/>
    <path id="Path_3226" data-name="Path 3226" d="M361.652,465.921a1.345,1.345,0,1,0-1.117.593A1.347,1.347,0,0,0,361.652,465.921Z" transform="translate(-289.514 -65.539)" fill="#ed1f57"/>
    <path id="Path_3227" data-name="Path 3227" d="M441.351,450.378a1.344,1.344,0,0,0,1.868-.363l0,0,.006-.009a1.345,1.345,0,0,0-2.232-1.5.029.029,0,0,1-.007.01A1.346,1.346,0,0,0,441.351,450.378Z" transform="translate(-352.328 -53.281)" fill="#ed1f57"/>
    <path id="Path_3228" data-name="Path 3228" d="M425.094,366.938a1.345,1.345,0,1,0,1.867-.364A1.346,1.346,0,0,0,425.094,366.938Z" transform="translate(-340.089 9.528)" fill="#ed1f57"/>
    <path id="Path_3229" data-name="Path 3229" d="M343.257,449.643a1.345,1.345,0,1,0,.378-1.865A1.343,1.343,0,0,0,343.257,449.643Z" transform="translate(-277.071 -53.011)" fill="#ed1f57"/>
    <path id="Path_3230" data-name="Path 3230" d="M425.09,464.334a1.345,1.345,0,1,0,1.484,2.243h0a1.345,1.345,0,0,0-1.484-2.244Z" transform="translate(-339.798 -65.76)" fill="#ed1f57"/>
    <path id="Path_3231" data-name="Path 3231" d="M337.022,427.419a1.345,1.345,0,1,0-1.322,1.6,1.325,1.325,0,0,0,.258-.026A1.345,1.345,0,0,0,337.022,427.419Z" transform="translate(-270.389 -36.666)" fill="#ed1f57"/>
    <path id="Path_3232" data-name="Path 3232" d="M404.348,472.806a1.345,1.345,0,0,0,.255,2.666,1.374,1.374,0,0,0,.258-.025,1.345,1.345,0,0,0-.513-2.641Z" transform="translate(-323.45 -72.437)" fill="#ed1f57"/>
    <path id="Path_3233" data-name="Path 3233" d="M381.943,472.728a1.345,1.345,0,1,0-.535,2.636,1.341,1.341,0,0,0,1.586-1.05A1.345,1.345,0,0,0,381.943,472.728Z" transform="translate(-305.793 -72.375)" fill="#ed1f57"/>
    <path id="Path_3234" data-name="Path 3234" d="M441.633,382.83a1.346,1.346,0,1,0,1.865.378A1.345,1.345,0,0,0,441.633,382.83Z" transform="translate(-352.538 -2.994)" fill="#ed1f57"/>
    <path id="Path_3235" data-name="Path 3235" d="M334.46,404.476a1.345,1.345,0,1,0,1.586-1.051A1.346,1.346,0,0,0,334.46,404.476Z" transform="translate(-270.448 -19.006)" fill="#ed1f57"/>
    <path id="Path_3236" data-name="Path 3236" d="M382.134,360.1a1.317,1.317,0,0,0,.259-.026,1.34,1.34,0,1,0-.259.026Z" transform="translate(-306.147 16.409)" fill="#ed1f57"/>
    <path id="Path_3237" data-name="Path 3237" d="M360.914,368.784a1.345,1.345,0,1,0-1.123-.6A1.341,1.341,0,0,0,360.914,368.784Z" transform="translate(-289.804 9.722)" fill="#ed1f57"/>
    <path id="Path_3238" data-name="Path 3238" d="M345.4,382.483a1.345,1.345,0,1,0,.364,1.868A1.346,1.346,0,0,0,345.4,382.483Z" transform="translate(-277.28 -2.723)" fill="#ed1f57"/>
    <path id="Path_3239" data-name="Path 3239" d="M404.8,360.143h0a1.324,1.324,0,0,0,.268.027,1.346,1.346,0,1,0-.267-.027Z" transform="translate(-323.804 16.356)" fill="#ed1f57"/>
    <path id="Path_3240" data-name="Path 3240" d="M419.2,478.933a1.381,1.381,0,1,0,1.8.748A1.381,1.381,0,0,0,419.2,478.933Z" transform="translate(-335.071 -77.094)" fill="#ed1f57"/>
    <path id="Path_3241" data-name="Path 3241" d="M441.185,464.183a.064.064,0,0,1-.009.009,1.382,1.382,0,1,0,1.954,1.954l.005,0,.006-.006a1.382,1.382,0,0,0-1.957-1.952Z" transform="translate(-352.339 -65.504)" fill="#ed1f57"/>
    <path id="Path_3242" data-name="Path 3242" d="M393.222,348.558a1.382,1.382,0,0,0,0-2.763h0a1.382,1.382,0,0,0,0,2.763Z" transform="translate(-314.657 25.353)" fill="#ed1f57"/>
    <path id="Path_3243" data-name="Path 3243" d="M441.136,368.368a1.382,1.382,0,1,0,0-1.955,1.381,1.381,0,0,0,0,1.955Z" transform="translate(-352.307 9.788)" fill="#ed1f57"/>
    <path id="Path_3244" data-name="Path 3244" d="M366.76,353.82a1.382,1.382,0,1,0-1.278-.853A1.374,1.374,0,0,0,366.76,353.82Z" transform="translate(-294.278 21.303)" fill="#ed1f57"/>
    <path id="Path_3245" data-name="Path 3245" d="M419.155,353.681a1.366,1.366,0,0,0,.526.105,1.383,1.383,0,1,0-.526-.105Z" transform="translate(-335.034 21.328)" fill="#ed1f57"/>
    <path id="Path_3246" data-name="Path 3246" d="M328.833,391.155a1.382,1.382,0,1,0-.749-1.8A1.386,1.386,0,0,0,328.833,391.155Z" transform="translate(-265.478 -7.53)" fill="#ed1f57"/>
    <path id="Path_3247" data-name="Path 3247" d="M343.412,464.243a1.382,1.382,0,1,0,1.954,0A1.382,1.382,0,0,0,343.412,464.243Z" transform="translate(-277.052 -65.551)" fill="#ed1f57"/>
    <path id="Path_3248" data-name="Path 3248" d="M325.51,416.342a1.382,1.382,0,1,0-1.382,1.383A1.382,1.382,0,0,0,325.51,416.342Z" transform="translate(-261.448 -27.911)" fill="#ed1f57"/>
    <path id="Path_3249" data-name="Path 3249" d="M328.849,441.527a1.382,1.382,0,1,0,1.806.748A1.382,1.382,0,0,0,328.849,441.527Z" transform="translate(-265.491 -48.287)" fill="#ed1f57"/>
    <path id="Path_3250" data-name="Path 3250" d="M344.351,368.835a1.382,1.382,0,1,0-.976-.4A1.377,1.377,0,0,0,344.351,368.835Z" transform="translate(-277.022 9.739)" fill="#ed1f57"/>
    <path id="Path_3251" data-name="Path 3251" d="M393.272,484.077a1.382,1.382,0,1,0,1.382,1.381A1.382,1.382,0,0,0,393.272,484.077Z" transform="translate(-314.695 -81.136)" fill="#ed1f57"/>
    <path id="Path_3252" data-name="Path 3252" d="M367.338,478.937a1.382,1.382,0,1,0,.749,1.8A1.381,1.381,0,0,0,367.338,478.937Z" transform="translate(-294.317 -77.097)" fill="#ed1f57"/>
    <path id="Path_3253" data-name="Path 3253" d="M508.733,398.44a6.97,6.97,0,0,1,.024-13.938,6.7,6.7,0,0,1,5.906,3.52l1.7-1.039a8.853,8.853,0,1,0-7.607,13.371,8.734,8.734,0,0,0,7.843-4.748l-1.748-.921A6.642,6.642,0,0,1,508.733,398.44Z" transform="translate(-397.871 -3.017)" fill="#ed1f57"/>
    <path id="Path_3254" data-name="Path 3254" d="M586.694,402.057a6.638,6.638,0,1,0,6.638,6.638A6.55,6.55,0,0,0,586.694,402.057Zm0,11.434a4.81,4.81,0,0,1,0-9.615,4.809,4.809,0,0,1,0,9.615Z" transform="translate(-459.618 -17.973)" fill="#ed1f57"/>
    <path id="Path_3255" data-name="Path 3255" d="M650.151,404.963v-2.409h-1.866v12.757H650.2v-6.993c0-2.811,1.229-4.039,3.355-4.039a2.793,2.793,0,0,1,1.559.4l.8-1.843a4.169,4.169,0,0,0-2.126-.472A3.533,3.533,0,0,0,650.151,404.963Z" transform="translate(-512.143 -18.211)" fill="#ed1f57"/>
    <path id="Path_3256" data-name="Path 3256" d="M690.036,402.057a6.543,6.543,0,0,0-6.662,6.685,6.389,6.389,0,0,0,6.733,6.591,6.554,6.554,0,0,0,5.929-3.236l-1.654-.969a4.561,4.561,0,0,1-4.276,2.457,4.614,4.614,0,0,1-4.843-4.158h11.268v-.874A6.293,6.293,0,0,0,690.036,402.057Zm-4.725,5.67a4.738,4.738,0,0,1,4.725-3.945,4.3,4.3,0,0,1,4.512,3.945Z" transform="translate(-539.164 -17.973)" fill="#ed1f57"/>
    <path id="Path_3257" data-name="Path 3257" d="M753.169,400.91h1.985v-7.465h8.835v-1.89h-8.835v-6.024h8.835v-1.866h-10.82Z" transform="translate(-592.913 -3.809)" fill="#ed1f57"/>
    <rect id="Rectangle_3837" data-name="Rectangle 3837" width="1.961" height="12.757" transform="translate(173.506 384.344)" fill="#ed1f57"/>
    <path id="Path_3258" data-name="Path 3258" d="M809.949,379.452a1.536,1.536,0,1,0,1.536,1.536A1.5,1.5,0,0,0,809.949,379.452Z" transform="translate(-635.474 -0.566)" fill="#ed1f57"/>
    <path id="Path_3259" data-name="Path 3259" d="M837.591,400.168a2.057,2.057,0,0,1-1.464.614c-1.087,0-1.843-.638-1.843-2.268V391.38h3.733v-1.725h-3.733v-4.04l-1.914,1.228v2.811h-2.48v1.725h2.48v7.181c0,2.811,1.276,4.04,3.614,4.04a4.1,4.1,0,0,0,2.622-.9Z" transform="translate(-651.995 -5.312)" fill="#ed1f57"/>
  </g>
</svg>
