<svg xmlns="http://www.w3.org/2000/svg" width="28.565" height="23.735" viewBox="0 0 28.565 23.735">
  <g id="Icon_feather-camera" data-name="Icon feather-camera" transform="translate(-0.5 -3.5)">
    <path id="Path_97" data-name="Path 97" d="M28.065,23.82a2.415,2.415,0,0,1-2.415,2.415H3.915A2.415,2.415,0,0,1,1.5,23.82V10.538A2.415,2.415,0,0,1,3.915,8.123h4.83L11.16,4.5h7.245L20.82,8.123h4.83a2.415,2.415,0,0,1,2.415,2.415Z" fill="none" stroke="#df3361" stroke-linecap="round" stroke-linejoin="round" stroke-width="2"/>
    <path id="Path_98" data-name="Path 98" d="M21.66,18.33a4.83,4.83,0,1,1-4.83-4.83,4.83,4.83,0,0,1,4.83,4.83Z" transform="translate(-2.047 -1.755)" fill="none" stroke="#df3361" stroke-linecap="round" stroke-linejoin="round" stroke-width="2"/>
  </g>
</svg>
