<svg xmlns="http://www.w3.org/2000/svg" width="15" height="12" viewBox="0 0 15 12">
  <g id="noun_filter_3409248" transform="translate(-5 -8.049)">
    <g id="Group_20269" data-name="Group 20269" transform="translate(5 8.049)">
      <path id="Path_25586" data-name="Path 25586" d="M5.682,11.564H12.6a2.7,2.7,0,0,0,5.264,0h1.459a.711.711,0,0,0,0-1.42H17.859a2.7,2.7,0,0,0-5.264,0H5.682a.711.711,0,0,0,0,1.42Zm9.545-2.13a1.421,1.421,0,1,1-1.364,1.42A1.393,1.393,0,0,1,15.227,9.434Zm4.091,7.1H12.4a2.7,2.7,0,0,0-5.264,0H5.682a.711.711,0,0,0,0,1.42H7.141a2.7,2.7,0,0,0,5.264,0h6.914a.711.711,0,0,0,0-1.42Zm-9.545,2.13a1.421,1.421,0,1,1,1.364-1.42A1.393,1.393,0,0,1,9.773,18.664Z" transform="translate(-5 -8.049)" fill="#177082"/>
    </g>
  </g>
</svg>
