<svg xmlns="http://www.w3.org/2000/svg" width="16.628" height="18.207" viewBox="0 0 16.628 18.207">
  <g id="noun_Home_156667" transform="translate(-8.577 -4.4)">
    <path id="Path_25581" data-name="Path 25581" d="M23.7,22.007H10.085a.909.909,0,0,1-.908-.907V12.227A1.819,1.819,0,0,1,9.732,11l6.506-5.754a1.006,1.006,0,0,1,1.307,0L24.05,11a1.819,1.819,0,0,1,.555,1.232V21.1A.908.908,0,0,1,23.7,22.007Zm-6.807-16.4a.385.385,0,0,0-.253.089l-6.505,5.754a1.246,1.246,0,0,0-.351.779V21.1a.3.3,0,0,0,.3.3H23.7a.3.3,0,0,0,.3-.3V12.227a1.246,1.246,0,0,0-.351-.779L17.144,5.694A.385.385,0,0,0,16.891,5.605Z" transform="translate(0 0)" fill="#5f6368" stroke="#5f6368" stroke-width="1.2"/>
  </g>
</svg>
