<svg xmlns="http://www.w3.org/2000/svg" width="11.123" height="17.796" viewBox="0 0 11.123 17.796">
  <path id="Icon_metro-location" data-name="Icon metro-location" d="M13.916,1.928A5.561,5.561,0,0,0,8.355,7.489c0,5.561,5.561,12.235,5.561,12.235s5.561-6.674,5.561-12.235a5.561,5.561,0,0,0-5.561-5.561Zm0,8.968a3.406,3.406,0,1,1,3.406-3.406A3.406,3.406,0,0,1,13.916,10.9ZM11.761,7.489a2.155,2.155,0,1,1,2.155,2.155A2.155,2.155,0,0,1,11.761,7.489Z" transform="translate(-8.355 -1.928)" fill="#177082"/>
</svg>
