<svg xmlns="http://www.w3.org/2000/svg" width="18.6" height="18.6" viewBox="0 0 18.6 18.6">
  <g id="noun_Calendar_1611923" transform="translate(0.3 0.3)">
    <g id="Group_20248" data-name="Group 20248">
      <path id="Path_25571" data-name="Path 25571" d="M32.091,18.162H29.909V17.054a.546.546,0,1,0-1.091,0v1.108H21.182v-.831a.546.546,0,1,0-1.091,0v.831H17.909A1.912,1.912,0,0,0,16,20.1V32.562A1.912,1.912,0,0,0,17.909,34.5H32.091A1.912,1.912,0,0,0,34,32.562V20.1A1.912,1.912,0,0,0,32.091,18.162Zm.818,14.4a.8.8,0,0,1-.764.831H17.909a.8.8,0,0,1-.818-.775V24.531H32.909Zm0-12.462v3.323H17.091V20.1a.8.8,0,0,1,.764-.831h2.236v1.385a.546.546,0,1,0,1.091,0V19.269h7.636v1.108a.546.546,0,1,0,1.091,0V19.269h2.182a.8.8,0,0,1,.818.775Z" transform="translate(-16 -16.5)" fill="#5f6368" stroke="#5f6368" stroke-width="0.6"/>
    </g>
  </g>
</svg>
