<svg xmlns="http://www.w3.org/2000/svg" width="54" height="54" viewBox="0 0 54 54">
  <g id="Group_20813" data-name="Group 20813" transform="translate(-1041.498 -817.5)">
    <rect id="victor-freitas-hOuJYX2K5DA-unsplash" width="54" height="54" transform="translate(1041.498 817.5)" fill="#f2f2f2" opacity="0.999"/>
    <path id="Icon_awesome-file-pdf" data-name="Icon awesome-file-pdf" d="M9.141,12.869a4.848,4.848,0,0,1-.1-2.357C9.462,10.513,9.422,12.367,9.141,12.869Zm-.085,2.372a23.187,23.187,0,0,1-1.427,3.151,18.5,18.5,0,0,1,3.161-1.1A6.509,6.509,0,0,1,9.055,15.241ZM4.327,21.513c0,.04.663-.271,1.754-2.02A6.945,6.945,0,0,0,4.327,21.513ZM12.462,8.04H19.3V24.523a1.2,1.2,0,0,1-1.206,1.206H1.206A1.2,1.2,0,0,1,0,24.523V1.206A1.2,1.2,0,0,1,1.206,0h10.05V6.834A1.21,1.21,0,0,0,12.462,8.04Zm-.4,8.633a5.044,5.044,0,0,1-2.146-2.7,7.223,7.223,0,0,0,.312-3.226,1.259,1.259,0,0,0-2.4-.342,8.356,8.356,0,0,0,.407,3.869,47.187,47.187,0,0,1-2.05,4.312c-.005,0-.005.005-.01.005-1.362.7-3.7,2.236-2.739,3.417a1.561,1.561,0,0,0,1.08.5c.9,0,1.794-.9,3.07-3.106a28.644,28.644,0,0,1,3.97-1.166,7.616,7.616,0,0,0,3.216.98,1.3,1.3,0,0,0,.99-2.181c-.7-.683-2.729-.487-3.7-.362Zm6.884-11.4L14.02.352A1.205,1.205,0,0,0,13.166,0h-.3V6.432H19.3V6.126A1.2,1.2,0,0,0,18.945,5.276ZM15.221,18.106c.206-.136-.126-.6-2.151-.452C14.935,18.447,15.221,18.106,15.221,18.106Z" transform="translate(1058.85 831.636)" fill="#ed1f57"/>
  </g>
</svg>
