<svg xmlns="http://www.w3.org/2000/svg" width="16.766" height="20.382" viewBox="0 0 16.766 20.382">
  <g id="noun-paper-1154324" transform="translate(-207.2 -106.4)">
    <path id="Path_25684" data-name="Path 25684" d="M220.678,126.782H210.487a3.3,3.3,0,0,1-3.287-3.287V109.687a3.3,3.3,0,0,1,3.287-3.287h10.191a3.3,3.3,0,0,1,3.287,3.287v13.807a3.3,3.3,0,0,1-3.287,3.288Zm-10.191-19.067a1.978,1.978,0,0,0-1.973,1.973v13.807a1.978,1.978,0,0,0,1.973,1.973h10.191a1.978,1.978,0,0,0,1.973-1.973V109.688a1.978,1.978,0,0,0-1.973-1.973Z" transform="translate(0 0)" fill="#5f6368"/>
    <path id="Path_25685" data-name="Path 25685" d="M289.644,202.917H285.7a.657.657,0,1,1,0-1.315h3.945a.657.657,0,1,1,0,1.315Z" transform="translate(-73.272 -89.613)" fill="#5f6368"/>
    <path id="Path_25686" data-name="Path 25686" d="M290.033,275.717h-6.575a.657.657,0,1,1,0-1.315h6.575a.657.657,0,1,1,0,1.315Z" transform="translate(-71.163 -158.14)" fill="#5f6368"/>
    <path id="Path_25687" data-name="Path 25687" d="M287.731,348.517h-4.274a.657.657,0,0,1,0-1.315h4.274a.657.657,0,0,1,0,1.315Z" transform="translate(-71.162 -226.666)" fill="#5f6368"/>
  </g>
</svg>
