<svg xmlns="http://www.w3.org/2000/svg" width="19" height="19.002" viewBox="0 0 19 19.002">
  <g id="Group_20799" data-name="Group 20799" transform="translate(-37.999 -915.998)">
    <path id="Path_25662" data-name="Path 25662" d="M73.638,67H70.785a.709.709,0,0,1-.705-.635l-.211-1.989a7.223,7.223,0,0,1-.863-.357l-1.555,1.257a.709.709,0,0,1-.945-.05L64.487,63.21a.709.709,0,0,1-.05-.945L65.7,60.708a7.19,7.19,0,0,1-.358-.863l-1.993-.213a.709.709,0,0,1-.634-.7V56.074a.709.709,0,0,1,.634-.7l1.99-.211a7.19,7.19,0,0,1,.358-.863l-1.258-1.557a.709.709,0,0,1,.05-.945L66.5,49.775a.709.709,0,0,1,.945-.05L69,50.983a7.22,7.22,0,0,1,.863-.357l.211-1.99A.709.709,0,0,1,70.785,48h2.854a.709.709,0,0,1,.705.635l.211,1.989a7.228,7.228,0,0,1,.863.357l1.556-1.257a.709.709,0,0,1,.945.05l2.018,2.018a.709.709,0,0,1,.05.945l-1.258,1.557a7.27,7.27,0,0,1,.358.863l1.99.211a.709.709,0,0,1,.634.7v2.854a.709.709,0,0,1-.632.706l-1.99.211a7.27,7.27,0,0,1-.358.863l1.258,1.557a.709.709,0,0,1-.05.945l-2.018,2.019a.709.709,0,0,1-.945.05l-1.556-1.257a7.228,7.228,0,0,1-.863.357l-.211,1.99A.709.709,0,0,1,73.638,67Zm-2.217-1.418H73l.193-1.823a.709.709,0,0,1,.523-.61,5.814,5.814,0,0,0,1.426-.592.709.709,0,0,1,.8.062l1.426,1.152,1.116-1.116-1.154-1.421a.709.709,0,0,1-.062-.8,5.8,5.8,0,0,0,.59-1.425.709.709,0,0,1,.611-.523l1.822-.194V56.712l-1.822-.194A.709.709,0,0,1,77.861,56a5.8,5.8,0,0,0-.59-1.425.709.709,0,0,1,.062-.8l1.152-1.426-1.116-1.116-1.426,1.152a.709.709,0,0,1-.8.062,5.814,5.814,0,0,0-1.425-.59.709.709,0,0,1-.523-.61L73,49.418H71.421l-.193,1.823a.709.709,0,0,1-.523.61,5.8,5.8,0,0,0-1.423.592.709.709,0,0,1-.8-.062l-1.424-1.154-1.116,1.116,1.152,1.426a.709.709,0,0,1,.061.8A5.834,5.834,0,0,0,66.562,56a.709.709,0,0,1-.61.523l-1.823.194v1.578l1.823.194a.709.709,0,0,1,.61.523,5.834,5.834,0,0,0,.59,1.423.709.709,0,0,1-.061.8l-1.152,1.423,1.116,1.116,1.426-1.152a.709.709,0,0,1,.8-.062,5.8,5.8,0,0,0,1.424.59.709.709,0,0,1,.523.61ZM81,58.928Z" transform="translate(-24.711 867.998)" fill="#5f6368"/>
    <path id="Path_25663" data-name="Path 25663" d="M176.678,166.277A4.319,4.319,0,1,1,181,161.958,4.318,4.318,0,0,1,176.678,166.277Zm0-7.219a2.9,2.9,0,1,0,2.9,2.9A2.9,2.9,0,0,0,176.678,159.058Z" transform="translate(-129.178 763.541)" fill="#5f6368"/>
  </g>
</svg>
